<svg xmlns="http://www.w3.org/2000/svg" viewBox="0 0 32 32" fill="none">
  <defs>
    <linearGradient id="skullGrad" x1="0%" y1="0%" x2="100%" y2="100%">
      <stop offset="0%" style="stop-color:#a855f7"/>
      <stop offset="100%" style="stop-color:#4ade80"/>
    </linearGradient>
  </defs>
  <!-- Skull shape -->
  <path d="M16 2C9 2 4 7 4 13c0 4 2 7 5 9v5c0 1 1 2 2 2h10c1 0 2-1 2-2v-5c3-2 5-5 5-9 0-6-5-11-12-11z" fill="url(#skullGrad)"/>
  <!-- Left eye -->
  <ellipse cx="11" cy="13" rx="3" ry="3.5" fill="#1f1f1f"/>
  <!-- Right eye -->
  <ellipse cx="21" cy="13" rx="3" ry="3.5" fill="#1f1f1f"/>
  <!-- Nose -->
  <path d="M16 16l-1.5 3h3L16 16z" fill="#1f1f1f"/>
  <!-- Teeth -->
  <path d="M10 23h12v2H10z" fill="#1f1f1f"/>
  <path d="M12 23v4M15 23v4M18 23v4M21 23v4" stroke="#1f1f1f" stroke-width="1"/>
</svg>
